<svg width="239" height="239" viewBox="0 0 239 239" fill="none" xmlns="http://www.w3.org/2000/svg">
<path d="M119.5 77.1771V129.458M209.922 85.4425V153.557C209.922 164.711 203.947 175.067 194.287 180.744L135.135 214.901C125.475 220.478 113.525 220.478 103.766 214.901L44.6134 180.744C39.8511 177.983 35.8992 174.017 33.1549 169.245C30.4105 164.473 28.9703 159.062 28.9788 153.557V85.4425C28.9788 74.2892 34.9538 63.9325 44.6134 58.2562L103.766 24.0992C113.426 18.5225 125.375 18.5225 135.135 24.0992L194.287 58.2562C203.947 63.9325 209.922 74.1896 209.922 85.4425Z" stroke="white" stroke-width="14.9375" stroke-linecap="round" stroke-linejoin="round"/>
<path d="M119.5 161.325V162.321" stroke="white" stroke-width="19.9167" stroke-linecap="round" stroke-linejoin="round"/>
</svg>
